<svg width="512" height="512" viewBox="5 6 30 30" fill="none" xmlns="http://www.w3.org/2000/svg">
  <!-- Ala izquierda - Azul celeste -->
  <path d="M5 18 Q8 8 18 12 Q12 16 14 22 Q9 20 5 18Z" fill="#38BDF8" opacity="0.9"/>
  <path d="M7 14 Q11 6 20 10 Q15 14 16 19 Q11 17 7 14Z" fill="#7DD3FC" opacity="0.7"/>
  <!-- Cuerpo central -->
  <path d="M14 14 Q20 10 26 14 Q24 20 20 24 Q16 20 14 14Z" fill="#FB923C"/>
  <!-- Ala derecha - Naranja dominante -->
  <path d="M35 18 Q32 8 22 12 Q28 16 26 22 Q31 20 35 18Z" fill="#F97316" opacity="0.9"/>
  <path d="M33 14 Q29 6 20 10 Q25 14 24 19 Q29 17 33 14Z" fill="#FB923C" opacity="0.8"/>
  <!-- Cola de fuego - Naranja intenso -->
  <path d="M16 24 Q18 32 20 36 Q22 32 24 24 Q22 28 20 28 Q18 28 16 24Z" fill="#EA580C"/>
  <!-- Cabeza - Destello -->
  <circle cx="20" cy="11" r="2.5" fill="#38BDF8"/>
</svg>